<svg width="30" height="30" viewBox="0 0 19 19" fill="none" xmlns="http://www.w3.org/2000/svg">
<path d="M9.50008 4.75001C10.3745 4.75001 11.0834 4.04113 11.0834 3.16668C11.0834 2.29223 10.3745 1.58334 9.50008 1.58334C8.62563 1.58334 7.91675 2.29223 7.91675 3.16668C7.91675 4.04113 8.62563 4.75001 9.50008 4.75001Z" fill="black"/>
<path d="M15.0416 10.2917V8.70834C13.8224 8.72418 12.5953 8.11459 11.8195 7.25959L10.7983 6.12751C10.6637 5.97709 10.4974 5.85834 10.3153 5.77126C10.3074 5.77126 10.3074 5.76334 10.2995 5.76334H10.2916C10.0145 5.60501 9.69784 5.52584 9.3495 5.55751C8.51825 5.62876 7.91659 6.36501 7.91659 7.19626V11.875C7.91659 12.7458 8.62909 13.4583 9.49992 13.4583H13.4583V17.4167H15.0416V13.0625C15.0416 12.1917 14.3291 11.4792 13.4583 11.4792H11.0833V8.74793C12.1045 9.59501 13.6562 10.2838 15.0416 10.2917ZM7.91659 15.8333C6.60242 15.8333 5.54159 14.7725 5.54159 13.4583C5.54159 12.4213 6.20659 11.5504 7.12492 11.2179V9.57918C5.31992 9.94334 3.95825 11.5425 3.95825 13.4583C3.95825 15.6433 5.73159 17.4167 7.91659 17.4167C9.83242 17.4167 11.4316 16.055 11.7958 14.25H10.157C9.83242 15.1683 8.95367 15.8333 7.91659 15.8333Z" fill="black"/>
</svg>
